<svg xmlns="http://www.w3.org/2000/svg" width="239" height="148" viewBox="0 0 239 148">
<g>
<path d="M 146.23 137.00 C136.30,138.93 118.47,140.17 112.00,139.39 C91.63,136.92 70.57,131.14 58.50,124.70 L 52.50 121.50 L 52.50 97.00 L 49.73 97.00 C46.71,97.00 46.69,96.24 49.51,88.00 C50.52,85.05 50.42,83.65 48.86,79.09 C47.83,76.12 47.00,73.56 47.00,73.40 C47.00,73.24 49.30,72.97 52.11,72.80 L 57.23 72.50 L 61.06 64.01 C63.16,59.35 66.79,52.60 69.13,49.01 C75.09,39.86 87.90,26.98 97.42,20.58 C105.50,15.15 117.37,9.00 119.78,9.00 C120.48,9.00 123.86,10.41 127.28,12.14 C149.94,23.55 166.64,39.89 176.65,60.43 C179.04,65.34 181.00,69.90 181.00,70.57 C181.00,72.20 183.34,73.00 188.08,73.00 C190.24,73.00 192.00,73.37 192.00,73.82 C192.00,74.27 191.30,77.01 190.44,79.90 C188.97,84.85 188.99,85.52 190.85,91.03 L 192.83 96.88 L 187.75 97.50 L 187.92 109.09 C188.06,117.75 187.76,120.95 186.75,121.79 C181.02,126.55 160.59,134.22 146.23,137.00 ZM 112.50 135.37 C130.75,137.26 159.28,131.45 177.92,122.04 L 184.00 118.97 L 184.00 109.57 C184.00,104.40 183.73,99.45 183.39,98.58 C182.85,97.16 176.33,97.00 120.01,97.00 L 57.23 97.00 L 56.76 100.17 C55.94,105.75 55.94,117.46 56.75,118.69 C57.84,120.33 69.94,125.67 79.00,128.53 C86.30,130.82 104.45,134.53 112.50,135.37 ZM 62.56 70.75 C61.89,72.93 62.07,73.00 68.78,73.00 C68.88,73.00 68.99,73.00 69.09,73.00 C72.21,73.00 74.01,73.00 75.48,72.30 C77.57,71.29 78.98,68.87 82.46,63.00 C84.59,59.42 86.43,56.36 86.56,56.18 C86.70,56.01 87.70,56.42 88.80,57.11 C90.45,58.14 91.25,58.07 93.35,56.69 C96.35,54.73 104.94,54.87 107.41,56.93 C108.53,57.85 109.37,57.94 110.25,57.21 C111.13,56.48 112.01,56.53 113.18,57.39 C114.10,58.06 116.95,58.54 119.52,58.46 C122.63,58.35 124.35,58.75 124.70,59.65 C125.53,61.83 126.55,61.25 129.55,56.93 C131.61,53.95 132.88,53.00 134.28,53.36 C135.34,53.64 137.28,53.37 138.60,52.77 C140.51,51.90 141.36,52.02 142.84,53.36 C143.86,54.28 145.66,54.91 146.84,54.77 C148.52,54.56 150.52,56.51 155.80,63.50 L 162.60 72.50 L 169.80 72.79 C174.41,72.98 177.00,72.70 177.00,72.02 C177.00,69.82 170.90,57.61 166.45,50.93 C157.45,37.39 144.90,26.28 128.71,17.53 L 120.05 12.85 L 113.28 16.14 C97.72,23.69 82.15,36.95 73.53,50.00 C69.14,56.65 63.81,66.72 62.56,70.75 ZM 169.00 78.00 L 169.00 92.00 L 173.05 92.00 C180.40,92.00 184.66,84.66 180.00,80.00 C178.59,78.59 176.67,78.00 173.50,78.00 ZM 72.00 85.00 C72.00,90.56 72.31,92.00 73.50,92.00 C74.43,92.00 75.00,91.06 75.00,89.50 C75.00,87.96 75.57,87.00 76.48,87.00 C77.29,87.00 78.69,88.12 79.59,89.50 C80.49,90.88 81.85,92.00 82.62,92.00 C84.43,92.00 84.36,91.06 82.38,88.87 C80.90,87.23 80.90,86.96 82.38,85.47 C86.27,81.59 83.58,78.00 76.80,78.00 L 72.00 78.00 ZM 153.60 86.25 C151.67,90.56 151.37,92.00 152.41,92.00 C153.16,92.00 154.05,91.32 154.36,90.50 C154.74,89.51 156.31,89.00 158.97,89.00 C161.89,89.00 163.00,89.41 163.00,90.50 C163.00,91.32 163.68,92.00 164.50,92.00 C166.47,92.00 166.47,91.99 163.06,84.48 C160.29,78.35 157.88,76.38 156.70,79.25 C156.42,79.94 155.02,83.09 153.60,86.25 ZM 86.00 91.59 C86.00,92.73 88.86,91.79 89.36,90.50 C90.16,88.41 96.62,88.51 97.81,90.63 C98.31,91.53 99.23,92.09 99.84,91.88 C101.39,91.36 95.09,78.00 93.30,78.00 C92.23,78.00 86.00,89.60 86.00,91.59 ZM 123.00 85.00 C123.00,90.56 123.31,92.00 124.50,92.00 C126.00,86.33 126.33,86.00 129.00,86.00 C131.67,86.00 132.00,86.33 132.00,89.00 C134.69,92.00 135.00,90.56 135.00,85.00 C135.00,79.44 134.69,78.00 133.50,78.00 C132.00,83.67 131.67,84.00 129.00,84.00 C126.33,84.00 126.00,83.67 126.00,81.00 C123.31,78.00 123.00,79.44 123.00,85.00 ZM 138.00 78.00 L 138.00 92.00 L 143.50 92.00 C149.67,92.00 151.05,90.29 145.26,89.81 C142.64,89.59 141.42,88.97 141.18,87.75 C140.92,86.35 141.56,86.00 144.43,86.00 C148.89,86.00 149.15,84.24 144.76,83.81 C142.62,83.61 141.40,82.90 141.18,81.75 C140.91,80.32 141.59,80.00 144.93,80.00 C147.17,80.00 149.00,79.55 149.00,79.00 C149.00,78.45 146.52,78.00 143.50,78.00 ZM 177.07 88.96 C172.57,91.37 171.00,90.17 171.00,84.33 C171.00,80.25 171.16,80.00 173.80,80.00 C175.34,80.00 177.14,80.54 177.80,81.20 C179.70,83.10 179.26,87.79 177.07,88.96 ZM 62.00 86.00 C62.00,90.67 62.33,92.00 63.50,92.00 C64.67,92.00 65.00,90.67 65.00,86.00 C65.00,80.67 65.22,80.00 67.00,80.00 C68.10,80.00 69.00,79.55 69.00,79.00 C69.00,78.44 66.33,78.00 63.00,78.00 C59.67,78.00 57.00,78.44 57.00,79.00 C57.00,79.55 58.12,80.00 59.50,80.00 C61.89,80.00 62.00,80.27 62.00,86.00 ZM 110.00 85.00 L 110.00 92.00 L 115.00 92.00 C117.75,92.00 120.00,91.55 120.00,91.00 C120.00,90.45 118.43,90.00 116.50,90.00 L 113.00 90.00 L 113.00 84.00 C113.00,79.33 112.67,78.00 111.50,78.00 C110.31,78.00 110.00,79.44 110.00,85.00 ZM 103.92 91.59 C105.39,93.05 106.00,91.13 106.00,85.00 C106.00,81.15 105.59,78.00 105.09,78.00 C104.19,78.00 103.09,90.77 103.92,91.59 ZM 80.82 82.25 C80.59,83.86 79.72,84.59 77.75,84.82 C75.38,85.09 75.00,84.78 75.00,82.57 C75.00,80.37 75.44,80.00 78.07,80.00 C80.68,80.00 81.09,80.34 80.82,82.25 ZM 160.29 83.98 C160.69,85.51 160.33,86.00 158.80,86.00 C157.37,86.00 156.96,85.54 157.39,84.42 C157.73,83.55 158.00,82.40 158.00,81.86 C158.00,80.23 159.72,81.83 160.29,83.98 ZM 95.00 84.56 C95.00,85.35 94.08,86.00 92.96,86.00 C91.23,86.00 91.09,85.70 92.01,83.97 C93.17,81.81 95.00,82.17 95.00,84.56 Z" fill="rgb(29,72,108)"/>
<path d="M 58.02 97.00 L 120.01 97.00 C160.32,97.00 175.12,97.08 180.47,97.65 C180.13,98.59 180.19,100.75 180.54,105.25 C181.45,116.76 180.79,117.97 171.63,121.82 C163.48,125.24 150.03,129.34 143.34,130.46 L 139.17 131.15 L 139.69 127.25 C140.66,120.01 134.68,112.35 126.30,110.11 C122.20,109.01 122.39,107.19 126.69,106.49 C131.96,105.63 134.95,104.29 135.65,102.47 C136.50,100.27 133.16,96.99 130.10,97.03 C127.57,97.06 127.55,97.10 129.50,98.57 C131.21,99.86 131.28,100.21 130.00,101.02 C129.17,101.54 126.56,101.98 124.18,101.98 C118.73,102.00 114.08,104.35 114.02,107.12 C114.01,107.47 115.99,109.68 118.43,112.04 C120.86,114.40 123.06,117.12 123.31,118.09 C124.17,121.35 120.23,126.01 114.34,128.70 C109.38,130.97 107.90,131.20 101.61,130.65 C93.33,129.93 77.81,125.66 66.75,121.04 L 59.00 117.81 L 59.00 107.41 C59.00,101.59 58.57,97.79 58.02,97.00 ZM 57.57 97.00 C57.30,97.37 57.02,98.39 56.76,100.17 L 57.23 97.00 ZM 183.15 98.28 C183.28,98.37 183.35,98.47 183.39,98.58 C183.51,98.90 183.63,99.76 183.72,100.98 C183.59,99.77 183.41,98.89 183.15,98.28 Z" fill="rgb(104,154,90)"/>
<path d="M 62.56 70.75 C62.64,70.51 62.73,70.25 62.83,69.97 C62.31,71.46 62.46,72.00 63.33,72.00 C64.04,72.00 66.16,68.78 68.06,64.84 C77.28,45.66 94.12,28.43 112.78,19.08 L 119.07 15.94 L 123.63 17.95 C135.65,23.27 154.16,38.75 162.54,50.51 C164.97,53.90 168.58,60.13 170.58,64.34 C172.58,68.55 174.85,72.00 175.61,72.00 C176.62,72.00 177.07,71.98 176.73,70.75 C176.90,71.31 177.00,71.74 177.00,72.02 C177.00,72.70 174.41,72.98 169.80,72.79 L 162.60 72.50 L 155.80 63.50 C150.52,56.51 148.52,54.56 146.84,54.77 C146.74,54.78 146.63,54.79 146.51,54.79 C147.15,54.09 146.89,52.29 145.29,49.97 C141.83,44.97 138.53,43.76 137.46,47.12 C137.13,48.15 136.45,49.00 135.93,49.00 C135.42,49.00 135.00,49.67 135.00,50.50 C135.00,51.33 134.44,52.01 133.75,52.03 C133.02,52.05 133.20,52.47 134.18,53.04 C134.58,53.28 135.02,53.42 135.50,53.47 C135.04,53.48 134.62,53.45 134.28,53.36 C132.88,53.00 131.61,53.95 129.55,56.93 C126.55,61.25 125.53,61.83 124.70,59.65 C124.35,58.75 122.63,58.35 119.52,58.46 C119.24,58.47 118.97,58.47 118.69,58.47 C120.21,58.42 121.47,58.09 121.69,57.44 C121.88,56.86 120.92,55.33 119.55,54.05 C117.48,52.10 116.80,51.92 115.53,52.98 C114.69,53.67 114.00,54.89 114.00,55.68 C114.00,56.50 113.46,56.85 112.75,56.48 C112.06,56.14 112.22,56.45 113.10,57.18 C113.62,57.60 114.44,57.93 115.39,58.15 C114.40,57.96 113.59,57.69 113.18,57.39 C112.01,56.53 111.13,56.48 110.25,57.21 C109.37,57.94 108.53,57.85 107.41,56.93 C106.56,56.22 104.98,55.74 103.16,55.49 C104.83,55.03 103.81,53.04 100.08,48.88 C96.76,45.17 95.88,44.67 94.33,45.61 C93.32,46.22 92.53,47.12 92.56,47.61 C92.59,48.10 91.58,49.62 90.31,50.99 C88.31,53.14 87.55,55.39 88.27,56.79 C87.40,56.30 86.67,56.03 86.56,56.18 C86.43,56.36 84.59,59.42 82.46,63.00 C78.98,68.87 77.57,71.29 75.48,72.30 C74.01,73.00 72.21,73.00 69.09,73.00 C68.99,73.00 68.88,73.00 68.78,73.00 C62.07,73.00 61.89,72.93 62.56,70.75 ZM 95.16 27.47 C86.70,34.06 79.20,41.92 73.23,50.45 C73.33,50.30 73.43,50.15 73.53,50.00 C78.72,42.14 86.44,34.20 95.16,27.47 ZM 168.38 53.99 C164.60,47.99 160.04,42.15 155.17,37.17 C153.70,35.66 152.27,34.26 150.84,32.94 C156.89,38.37 162.09,44.36 166.45,50.93 C167.07,51.86 167.72,52.89 168.38,53.99 ZM 93.78 56.44 C93.81,56.42 93.83,56.40 93.86,56.39 C95.38,55.32 97.02,55.00 99.46,55.31 C97.26,55.37 95.13,55.75 93.78,56.44 ZM 139.21 52.52 C140.63,51.96 141.34,52.06 142.33,52.92 C141.29,52.12 140.51,52.02 139.21,52.52 ZM 176.31 69.58 C175.91,68.57 175.27,67.15 174.36,65.14 C175.17,66.83 175.85,68.37 176.31,69.58 Z" fill="rgb(122,179,216)"/>
<path d="M 0.00 74.00 L 0.00 0.00 L 119.50 0.00 L 239.00 0.00 L 239.00 74.00 L 239.00 148.00 L 119.50 148.00 L 0.00 148.00 L 0.00 74.00 ZM 146.23 137.00 C160.59,134.22 181.02,126.55 186.75,121.79 C187.76,120.95 188.06,117.75 187.92,109.09 L 187.75 97.50 L 190.29 97.19 L 192.83 96.88 L 190.85 91.03 C188.99,85.52 188.97,84.85 190.44,79.90 C191.30,77.01 192.00,74.27 192.00,73.82 C192.00,73.37 190.24,73.00 188.08,73.00 C183.34,73.00 181.00,72.20 181.00,70.57 C181.00,69.90 179.04,65.34 176.65,60.43 C166.64,39.89 149.94,23.55 127.28,12.14 C123.86,10.41 120.48,9.00 119.78,9.00 C117.37,9.00 105.50,15.15 97.42,20.58 C87.90,26.98 75.09,39.86 69.13,49.01 C66.79,52.60 63.16,59.35 61.06,64.01 L 57.23 72.50 L 52.11 72.80 C49.30,72.97 47.00,73.24 47.00,73.40 C47.00,73.56 47.83,76.12 48.86,79.09 C50.42,83.65 50.52,85.05 49.51,88.00 C46.69,96.24 46.71,97.00 49.73,97.00 L 52.50 97.00 L 52.50 109.25 L 52.50 121.50 L 58.50 124.70 C70.57,131.14 91.63,136.92 112.00,139.39 C118.47,140.17 136.30,138.93 146.23,137.00 ZM 112.50 135.37 C104.45,134.53 86.30,130.82 79.00,128.53 C69.94,125.67 57.84,120.33 56.75,118.69 C55.94,117.46 55.94,105.75 56.76,100.17 C57.75,93.43 59.00,97.48 59.00,107.41 L 59.00 117.81 L 66.75 121.04 C77.81,125.66 93.33,129.93 101.61,130.65 C107.90,131.20 109.38,130.97 114.34,128.70 C120.23,126.01 124.17,121.35 123.31,118.09 C123.06,117.12 120.86,114.40 118.43,112.04 C115.99,109.68 114.01,107.47 114.02,107.12 C114.08,104.35 118.73,102.00 124.18,101.98 C126.56,101.98 129.17,101.54 130.00,101.02 C131.28,100.21 131.21,99.86 129.50,98.57 C127.55,97.10 127.57,97.06 130.10,97.03 C133.16,96.99 136.50,100.27 135.65,102.47 C134.95,104.29 131.96,105.63 126.69,106.49 C122.39,107.19 122.20,109.01 126.30,110.11 C134.68,112.35 140.66,120.01 139.69,127.25 L 139.17 131.15 L 143.34 130.46 C150.03,129.34 163.48,125.24 171.63,121.82 C180.79,117.97 181.45,116.76 180.54,105.25 C180.01,98.42 180.15,97.00 181.34,97.00 C183.52,97.00 184.00,99.27 184.00,109.57 L 184.00 118.97 L 177.92 122.04 C159.28,131.45 130.75,137.26 112.50,135.37 ZM 62.00 86.00 C62.00,80.27 61.89,80.00 59.50,80.00 C58.12,80.00 57.00,79.55 57.00,79.00 C57.00,78.44 59.67,78.00 63.00,78.00 C66.33,78.00 69.00,78.44 69.00,79.00 C69.00,79.55 68.10,80.00 67.00,80.00 C65.22,80.00 65.00,80.67 65.00,86.00 C65.00,90.67 64.67,92.00 63.50,92.00 C62.33,92.00 62.00,90.67 62.00,86.00 ZM 72.00 85.00 L 72.00 78.00 L 76.80 78.00 C83.58,78.00 86.27,81.59 82.38,85.47 C80.90,86.96 80.90,87.23 82.38,88.87 C84.36,91.06 84.43,92.00 82.62,92.00 C81.85,92.00 80.49,90.88 79.59,89.50 C78.69,88.12 77.29,87.00 76.48,87.00 C75.57,87.00 75.00,87.96 75.00,89.50 C75.00,91.06 74.43,92.00 73.50,92.00 C72.31,92.00 72.00,90.56 72.00,85.00 ZM 80.82 82.25 C81.09,80.34 80.68,80.00 78.07,80.00 C75.44,80.00 75.00,80.37 75.00,82.57 C75.00,84.78 75.38,85.09 77.75,84.82 C79.72,84.59 80.59,83.86 80.82,82.25 ZM 86.00 91.59 C86.00,89.60 92.23,78.00 93.30,78.00 C95.09,78.00 101.39,91.36 99.84,91.88 C99.23,92.09 98.31,91.53 97.81,90.63 C96.62,88.51 90.16,88.41 89.36,90.50 C88.86,91.79 86.00,92.73 86.00,91.59 ZM 95.00 84.56 C95.00,82.17 93.17,81.81 92.01,83.97 C91.09,85.70 91.23,86.00 92.96,86.00 C94.08,86.00 95.00,85.35 95.00,84.56 ZM 103.92 91.59 C103.09,90.77 104.19,78.00 105.09,78.00 C105.59,78.00 106.00,81.15 106.00,85.00 C106.00,91.13 105.39,93.05 103.92,91.59 ZM 110.00 85.00 C110.00,79.44 110.31,78.00 111.50,78.00 C112.67,78.00 113.00,79.33 113.00,84.00 L 113.00 90.00 L 116.50 90.00 C118.43,90.00 120.00,90.45 120.00,91.00 C120.00,91.55 117.75,92.00 115.00,92.00 L 110.00 92.00 L 110.00 85.00 ZM 123.00 85.00 C123.00,79.44 123.31,78.00 124.50,78.00 C125.50,78.00 126.00,79.00 126.00,81.00 C126.00,83.67 126.33,84.00 129.00,84.00 C131.67,84.00 132.00,83.67 132.00,81.00 C132.00,79.00 132.50,78.00 133.50,78.00 C134.69,78.00 135.00,79.44 135.00,85.00 C135.00,90.56 134.69,92.00 133.50,92.00 C132.50,92.00 132.00,91.00 132.00,89.00 C132.00,86.33 131.67,86.00 129.00,86.00 C126.33,86.00 126.00,86.33 126.00,89.00 C126.00,91.00 125.50,92.00 124.50,92.00 C123.31,92.00 123.00,90.56 123.00,85.00 ZM 138.00 85.00 L 138.00 78.00 L 143.50 78.00 C146.52,78.00 149.00,78.45 149.00,79.00 C149.00,79.55 147.17,80.00 144.93,80.00 C141.59,80.00 140.91,80.32 141.18,81.75 C141.40,82.90 142.62,83.61 144.76,83.81 C149.15,84.24 148.89,86.00 144.43,86.00 C141.56,86.00 140.92,86.35 141.18,87.75 C141.42,88.97 142.64,89.59 145.26,89.81 C151.05,90.29 149.67,92.00 143.50,92.00 L 138.00 92.00 L 138.00 85.00 ZM 153.60 86.25 C155.02,83.09 156.42,79.94 156.70,79.25 C157.88,76.38 160.29,78.35 163.06,84.48 C166.47,91.99 166.47,92.00 164.50,92.00 C163.68,92.00 163.00,91.32 163.00,90.50 C163.00,89.41 161.89,89.00 158.97,89.00 C156.31,89.00 154.74,89.51 154.36,90.50 C154.05,91.32 153.16,92.00 152.41,92.00 C151.37,92.00 151.67,90.56 153.60,86.25 ZM 160.29 83.98 C159.72,81.83 158.00,80.23 158.00,81.86 C158.00,82.40 157.73,83.55 157.39,84.42 C156.96,85.54 157.37,86.00 158.80,86.00 C160.33,86.00 160.69,85.51 160.29,83.98 ZM 169.00 85.00 L 169.00 78.00 L 173.50 78.00 C176.67,78.00 178.59,78.59 180.00,80.00 C184.66,84.66 180.40,92.00 173.05,92.00 L 169.00 92.00 L 169.00 85.00 ZM 177.07 88.96 C179.26,87.79 179.70,83.10 177.80,81.20 C177.14,80.54 175.34,80.00 173.80,80.00 C171.16,80.00 171.00,80.25 171.00,84.33 C171.00,90.17 172.57,91.37 177.07,88.96 ZM 62.98 69.56 C71.30,47.67 90.66,27.11 113.28,16.14 L 120.05 12.85 L 128.71 17.53 C140.07,23.67 147.03,28.83 155.17,37.17 C162.86,45.03 169.78,55.03 174.03,64.41 C177.45,71.95 177.46,72.00 175.61,72.00 C174.85,72.00 172.58,68.55 170.58,64.34 C168.58,60.13 164.97,53.90 162.54,50.51 C154.16,38.75 135.65,23.27 123.63,17.95 L 119.07 15.94 L 112.78 19.08 C94.12,28.43 77.28,45.66 68.06,64.84 C66.16,68.78 64.04,72.00 63.33,72.00 C62.39,72.00 62.29,71.36 62.98,69.56 ZM 113.10 57.18 C112.22,56.45 112.06,56.14 112.75,56.48 C113.46,56.85 114.00,56.50 114.00,55.68 C114.00,54.89 114.69,53.67 115.53,52.98 C116.80,51.92 117.48,52.10 119.55,54.05 C120.92,55.33 121.88,56.86 121.69,57.44 C121.18,58.95 115.01,58.75 113.10,57.18 ZM 88.67 57.33 C87.36,56.03 88.03,53.44 90.31,50.99 C91.58,49.62 92.59,48.10 92.56,47.61 C92.53,47.12 93.32,46.22 94.33,45.61 C95.88,44.67 96.76,45.17 100.08,48.88 C105.22,54.62 105.22,56.22 100.08,55.40 C97.28,54.95 95.51,55.23 93.86,56.39 C91.40,58.11 89.74,58.41 88.67,57.33 ZM 142.75 53.32 C141.35,51.92 140.64,51.84 138.47,52.83 C136.71,53.63 135.31,53.70 134.18,53.04 C133.20,52.47 133.02,52.05 133.75,52.03 C134.44,52.01 135.00,51.33 135.00,50.50 C135.00,49.67 135.42,49.00 135.93,49.00 C136.45,49.00 137.13,48.15 137.46,47.12 C138.53,43.76 141.83,44.97 145.29,49.97 C148.39,54.46 146.45,57.02 142.75,53.32 Z" fill="rgb(251,253,253)"/>
</g>
</svg>